Coordinates	
version=1	
nRows=577	
nColumns=2	
inDegrees=yes	
	
"Units are S.I. units (second, meters, Newtons, ...)"	
Angles are in degrees.	
	
endheader	
time	transX
50	-2.477039005
50.02	-2.5300228
50.04	-2.58263831
50.06	-2.634886234
50.08	-2.68676727
50.1	-2.738282172
50.12	-2.80010738
50.14	-2.861639146
50.16	-2.922878233
50.18	-2.983825401
50.2	-3.044480438
50.22	-3.125091444
50.24	-3.205544738
50.26	-3.285840045
50.28	-3.3659771
50.3	-3.445953798
50.32	-3.520249435
50.34	-3.594343464
50.36	-3.668233685
50.38	-3.741917929
50.4	-3.815394557
50.42	-3.859207557
50.44	-3.902613455
50.46	-3.945610725
50.48	-3.98819786
50.5	-4.030376073
50.52	-4.077924958
50.54	-4.125106328
50.56	-4.171921632
50.58	-4.218372314
50.6	-4.264459283
50.62	-4.343102251
50.64	-4.421602695
50.66	-4.499961479
50.68	-4.578179469
50.7	-4.656254516
50.72	-4.708852725
50.74	-4.761134373
50.76	-4.813097122
50.78	-4.86473866
50.8	-4.916059025
50.82	-4.96328862
50.84	-5.010172416
50.86	-5.056710683
50.88	-5.102903701
50.9	-5.148752097
50.92	-5.211350904
50.94	-5.273720382
50.96	-5.335861202
50.98	-5.397774039
51	-5.459458004
51.02	-5.511538032
51.04	-5.563324695
51.06	-5.614817013
51.08	-5.666014025
51.1	-5.716915643
51.12	-5.755038589
51.14	-5.792782926
51.16	-5.830148675
51.18	-5.867135865
51.2	-5.903745678
51.22	-5.957092813
51.24	-6.01017922
51.26	-6.063006179
51.28	-6.11557497
51.3	-6.167885305
51.32	-6.207096661
51.34	-6.245963145
51.36	-6.284484361
51.38	-6.322659928
51.4	-6.360490653
51.42	-6.398531295
51.44	-6.436232614
51.46	-6.47359553
51.48	-6.510620965
51.5	-6.547309792
51.52	-6.606834834
51.54	-6.666179493
51.56	-6.725344643
51.58	-6.784331162
51.6	-6.843137808
51.62	-6.90228939
51.64	-6.961261815
51.66	-7.02005371
51.68	-7.078663725
51.7	-7.137090483
51.72	-7.165146274
51.74	-7.192814869
51.76	-7.220094951
51.78	-7.246985224
51.8	-7.273487177
51.82	-7.30043108
51.84	-7.32699564
51.86	-7.353182586
51.88	-7.378993643
51.9	-7.404430455
51.92	-7.442936311
51.94	-7.481160794
51.96	-7.519105529
51.98	-7.556772135
52	-7.594160998
52.02	-7.64119625
52.04	-7.688020493
52.06	-7.734634024
52.08	-7.781037143
52.1	-7.827229253
52.12	-7.852672387
52.14	-7.877766285
52.16	-7.902510313
52.18	-7.926903851
52.2	-7.950948175
52.22	-7.957445008
52.24	-7.963480841
52.26	-7.969057119
52.28	-7.974175282
52.3	-7.978838346
52.32	-8.000119023
52.34	-8.021064654
52.36	-8.041678346
52.38	-8.061963192
52.4	-8.081920706
52.42	-8.084724914
52.44	-8.087092353
52.46	-8.089024389
52.48	-8.090522384
52.5	-8.091589241
52.52	-8.092600627
52.54	-8.09318939
52.56	-8.09335853
52.58	-8.093111031
52.6	-8.092449827
52.62	-8.081284628
52.64	-8.069644256
52.66	-8.057531599
52.68	-8.044949531
52.7	-8.031901836
52.72	-8.009618338
52.74	-7.986818385
52.76	-7.963505779
52.78	-7.939684304
52.8	-7.915358521
52.82	-7.892912203
52.84	-7.869986621
52.86	-7.846586327
52.88	-7.822715845
52.9	-7.798379454
52.92	-7.773317426
52.94	-7.74779617
52.96	-7.721819871
52.98	-7.695392685
53	-7.668518772
53.02	-7.642142696
53.04	-7.615334411
53.06	-7.588098003
53.08	-7.56043754
53.1	-7.532356976
53.12	-7.489767367
53.14	-7.446671535
53.16	-7.40307336
53.18	-7.358976703
53.2	-7.314386691
53.22	-7.264374256
53.24	-7.213845959
53.26	-7.162806947
53.28	-7.111262339
53.3	-7.059217671
53.32	-7.01074377
53.34	-6.961807955
53.36	-6.912415698
53.38	-6.862572435
53.4	-6.812283196
53.42	-6.755715349
53.44	-6.698672509
53.46	-6.641159579
53.48	-6.583181431
53.5	-6.524743445
53.52	-6.452219985
53.54	-6.379156561
53.56	-6.305558498
53.58	-6.231431086
53.6	-6.156780833
53.62	-6.08290727
53.64	-6.008532586
53.66	-5.93366327
53.68	-5.858305768
53.7	-5.782466365
53.72	-5.706365408
53.74	-5.629796402
53.76	-5.552765496
53.78	-5.4752788
53.8	-5.397342364
53.82	-5.31868934
53.84	-5.239596736
53.86	-5.160070483
53.88	-5.080116475
53.9	-4.99974059
53.92	-4.919080433
53.94	-4.838010929
53.96	-4.756537845
53.98	-4.674666916
54	-4.592403824
54.02	-4.509708598
54.04	-4.426632161
54.06	-4.343180088
54.08	-4.259357919
54.1	-4.175171161
54.12	-4.090637314
54.14	-4.005749872
54.16	-3.920514241
54.18	-3.834935792
54.2	-3.749019862
54.22	-3.662769778
54.24	-3.576192774
54.26	-3.489294085
54.28	-3.402078916
54.3	-3.31455244
54.32	-3.22671959
54.34	-3.138585679
54.36	-3.050155785
54.38	-2.961434952
54.4	-2.872428195
54.42	-2.783140846
54.44	-2.69357751
54.46	-2.60374311
54.48	-2.513642537
54.5	-2.423280652
54.52	-2.332662108
54.54	-2.241791885
54.56	-2.150674755
54.58	-2.059315462
54.6	-1.96771872
54.62	-1.875889287
54.64	-1.783831748
54.66	-1.69155073
54.68	-1.599050834
54.7	-1.50633663
54.72	-1.413412628
54.74	-1.320283379
54.76	-1.226953371
54.78	-1.133427064
54.8	-1.039708894
54.82	-0.945803261
54.84	-0.85171455
54.86	-0.757447114
54.88	-0.663005281
54.9	-0.568393349
54.92	-0.473615796
54.94	-0.378676668
54.96	-0.283580187
54.98	-0.188330547
55	-0.09293192
55.02	0.002612532
55.04	0.098297715
55.06	0.194119535
55.08	0.290073921
55.1	0.386156831
55.12	0.482360887
55.14	0.578685431
55.16	0.675126492
55.18	0.771680125
55.2	0.868342409
55.22	0.965118199
55.24	1.061994929
55.26	1.158968751
55.28	1.25603584
55.3	1.353192395
55.32	1.450419745
55.34	1.547728927
55.36	1.645116211
55.38	1.742577889
55.4	1.840110276
55.42	1.937707872
55.44	2.035368867
55.46	2.133089646
55.48	2.230866617
55.5	2.328696211
55.52	2.426713939
55.54	2.524778146
55.56	2.622885329
55.58	2.721032008
55.6	2.819214712
55.62	2.916723287
55.64	3.014256298
55.66	3.111810341
55.68	3.209382031
55.7	3.306968071
55.72	3.407043453
55.74	3.507143187
55.76	3.607264043
55.78	3.707402814
55.8	3.807556086
55.82	3.900765965
55.84	3.99393718
55.86	4.087066367
55.88	4.180150179
55.9	4.273185932
55.92	4.353984342
55.94	4.434648238
55.96	4.515175043
55.98	4.595562196
56	4.675808265
56.02	4.757605162
56.04	4.839269619
56.06	4.920800326
56.08	5.002195979
56.1	5.083455126
56.12	5.149847617
56.14	5.216002499
56.16	5.281918325
56.18	5.34759366
56.2	5.41302842
56.22	5.474649328
56.24	5.536005901
56.26	5.597098167
56.28	5.65792615
56.3	5.718490199
56.32	5.78300745
56.34	5.847289609
56.36	5.91133703
56.38	5.975150065
56.4	6.038728669
56.42	6.09410167
56.44	6.14918694
56.46	6.203984391
56.48	6.258493936
56.5	6.312716215
56.52	6.354986657
56.54	6.396893448
56.56	6.43843727
56.58	6.479618798
56.6	6.520439766
56.62	6.562427317
56.64	6.604068083
56.66	6.645363844
56.68	6.686316366
56.7	6.726927257
56.72	6.752217166
56.74	6.777068719
56.76	6.801483468
56.78	6.82546295
56.8	6.84901006
56.82	6.869574033
56.84	6.889694564
56.86	6.909374598
56.88	6.928617053
56.9	6.947425057
56.92	6.967420264
56.94	6.986998027
56.96	7.006161416
56.98	7.024913477
57	7.04325708
57.02	7.060527122
57.04	7.077389899
57.06	7.0938482
57.08	7.109904789
57.1	7.125562472
57.12	7.141078303
57.14	7.156202475
57.16	7.170937734
57.18	7.185286802
57.2	7.199252356
57.22	7.212756917
57.24	7.225882722
57.26	7.238632387
57.28	7.251008509
57.3	7.26301367
57.32	7.274300696
57.34	7.285219543
57.36	7.295772738
57.38	7.305962791
57.4	7.315792226
57.42	7.327427896
57.44	7.338722376
57.46	7.349678138
57.48	7.360297638
57.5	7.370583116
57.52	7.370393006
57.54	7.369805649
57.56	7.368823224
57.58	7.367447895
57.6	7.365682738
57.62	7.352109005
57.64	7.338075552
57.66	7.323585474
57.68	7.308641848
57.7	7.293248772
57.72	7.284843406
57.74	7.276046434
57.76	7.266861957
57.78	7.257294051
57.8	7.247346077
57.82	7.250064612
57.84	7.252496571
57.86	7.254645187
57.88	7.256513669
57.9	7.258104011
57.92	7.244030531
57.94	7.229580073
57.96	7.214754489
57.98	7.199555622
58	7.183986713
58.02	7.16410458
58.04	7.143832761
58.06	7.12317456
58.08	7.102133259
58.1	7.080712481
58.12	7.069317083
58.14	7.057618783
58.16	7.045621159
58.18	7.03332777
58.2	7.020741195
58.22	7.023381588
58.24	7.025837194
58.26	7.028110463
58.28	7.030203829
58.3	7.032118293
58.32	7.01520987
58.34	6.997999992
58.36	6.980489525
58.38	6.962679337
58.4	6.944571999
58.42	6.887374501
58.44	6.829626615
58.46	6.771331023
58.48	6.712490393
58.5	6.653110925
58.52	6.641501164
58.54	6.629687467
58.56	6.617676218
58.58	6.605473755
58.6	6.593081947
58.62	6.57575957
58.64	6.558219166
58.66	6.540462178
58.68	6.522490045
58.7	6.504304633
58.72	6.460077483
58.74	6.415468639
58.76	6.370479982
58.78	6.325113384
58.8	6.279373076
58.82	6.244673761
58.84	6.20968559
58.86	6.174412921
58.88	6.13886008
58.9	6.10303032
58.92	6.093046366
58.94	6.082965887
58.96	6.07279198
58.98	6.062527725
59	6.052173792
59.02	6.035236043
59.04	6.018166244
59.06	6.000964856
59.08	5.98363234
59.1	5.966169759
59.12	5.933092534
59.14	5.899784228
59.16	5.866245954
59.18	5.83247882
59.2	5.79848535
59.22	5.777952618
59.24	5.757290035
59.26	5.736500213
59.28	5.715585747
59.3	5.694547964
59.32	5.676368879
59.34	5.658088775
59.36	5.639708852
59.38	5.621230312
59.4	5.602654078
59.42	5.590164026
59.44	5.577619297
59.46	5.565020789
59.48	5.552369397
59.5	5.539665453
59.52	5.538921456
59.54	5.538205562
59.56	5.537518061
59.58	5.53685925
59.6	5.536228329
59.62	5.533417095
59.64	5.530617287
59.66	5.527828046
59.68	5.525048527
59.7	5.522278104
59.72	5.520417737
59.74	5.518571291
59.76	5.516738193
59.78	5.51491788
59.8	5.513109717
59.82	5.499741366
59.84	5.486306773
59.86	5.472805332
59.88	5.459236446
59.9	5.44560059
59.92	5.415236532
59.94	5.384695566
59.96	5.353978267
59.98	5.32308521
60	5.292018499
60.02	5.289352923
60.04	5.28670861
60.06	5.284087761
60.08	5.281492567
60.1	5.278922587
60.12	5.292489078
60.14	5.306186887
60.16	5.320015363
60.18	5.33397387
60.2	5.348060306
60.22	5.325960167
60.24	5.303741483
60.26	5.281402088
60.28	5.25893984
60.3	5.236355946
60.32	5.232978577
60.34	5.229611382
60.36	5.226255852
60.38	5.222913469
60.4	5.219583936
60.42	5.215002629
60.44	5.210424866
60.46	5.205850212
60.48	5.201278242
60.5	5.196708655
60.52	5.205163204
60.54	5.213706387
60.56	5.222337932
60.58	5.231057578
60.6	5.239863873
60.62	5.247718387
60.64	5.255649583
60.66	5.263655952
60.68	5.271736004
60.7	5.279888362
60.72	5.274976497
60.74	5.270046678
60.76	5.26509758
60.78	5.260127899
60.8	5.255137542
60.82	5.25256181
60.84	5.249981681
60.86	5.247397189
60.88	5.244808367
60.9	5.242215032
60.92	5.238577424
60.94	5.234927978
60.96	5.231266504
60.98	5.227592817
61	5.223906832
61.02	5.235870152
61.04	5.247925444
61.06	5.260072641
61.08	5.272311685
61.1	5.284641082
61.12	5.292025375
61.14	5.299463278
61.16	5.306953217
61.18	5.314493636
61.2	5.322083455
61.22	5.30648579
61.24	5.290780576
61.26	5.274966814
61.28	5.259043512
61.3	5.243011819
61.32	5.232120922
61.34	5.221159266
61.36	5.210128169
61.38	5.199028941
61.4	5.187862403
61.42	5.20344962
61.44	5.219149872
61.46	5.234963922
61.48	5.250892531
61.5	5.266933997
61.52	5.279006004
